<?xml version="1.0" standalone="no"?>
<!DOCTYPE svg PUBLIC "-//W3C//DTD SVG 20010904//EN"
 "http://www.w3.org/TR/2001/REC-SVG-20010904/DTD/svg10.dtd">
<svg version="1.0" xmlns="http://www.w3.org/2000/svg"
 width="1280.000000pt" height="806.000000pt" viewBox="0 0 1280.000000 806.000000"
 preserveAspectRatio="xMidYMid meet">
<metadata>
Created by potrace 1.15, written by Peter Selinger 2001-2017
</metadata>
<g transform="translate(0.000000,806.000000) scale(0.100000,-0.100000)"
fill="#000000" stroke="none">
<path d="M6025 8047 c-142 -48 -239 -146 -326 -331 -56 -119 -105 -275 -205
-644 -125 -464 -149 -548 -216 -752 -140 -428 -295 -765 -482 -1050 -403 -613
-946 -964 -1666 -1079 -119 -19 -350 -41 -432 -41 l-38 0 0 1375 0 1375 104 0
c89 0 107 3 130 21 32 25 33 59 3 87 -23 22 -30 22 -303 22 -280 0 -281 0
-302 -23 -28 -30 -28 -52 3 -82 23 -24 31 -25 135 -25 l110 0 -2 -1372 -3
-1373 -1201 -3 -1201 -2 -11 25 c-7 14 -23 31 -37 37 -22 10 -30 8 -53 -9
l-27 -20 -3 -283 c-2 -280 -2 -284 20 -307 12 -13 32 -23 44 -23 23 0 64 42
64 66 0 12 190 14 1203 12 l1202 -3 0 -1375 0 -1375 -115 -3 c-103 -2 -117 -4
-132 -23 -23 -28 -23 -54 2 -79 19 -19 33 -20 305 -20 272 0 286 1 305 20 24
24 25 48 4 78 -14 21 -23 22 -130 22 l-114 0 0 1380 0 1380 83 0 c257 0 629
59 914 146 l113 34 650 0 650 0 0 -110 c0 -97 2 -112 20 -130 25 -25 51 -25
81 -1 22 18 24 28 27 130 l4 111 919 0 c505 0 922 0 927 1 4 0 40 -156 79
-348 329 -1583 579 -2488 820 -2967 145 -288 325 -466 511 -505 213 -44 439
57 579 261 108 157 173 317 302 749 51 167 115 374 143 459 254 777 596 1282
1099 1622 399 271 896 439 1494 507 94 11 233 22 310 26 77 3 173 8 213 11 58
4 72 2 72 -9 0 -25 41 -67 64 -67 12 0 32 10 44 23 22 23 22 27 20 307 l-3
283 -27 20 c-23 17 -31 19 -53 9 -14 -6 -30 -22 -36 -35 -10 -23 -15 -23 -253
-35 -395 -20 -703 -63 -1025 -142 l-163 -40 -486 2 -487 3 -3 110 c-2 98 -5
112 -23 128 -28 22 -54 22 -79 -3 -18 -18 -20 -33 -20 -130 l0 -110 -1205 0
-1205 0 0 110 c0 97 -2 112 -20 130 -25 25 -51 25 -81 1 -22 -18 -24 -28 -27
-130 l-4 -111 -29 0 c-16 0 -29 4 -29 9 0 11 -190 950 -275 1356 -151 728
-311 1396 -414 1735 -182 598 -327 857 -535 956 -66 32 -89 37 -164 40 -55 3
-102 -1 -127 -9z m170 -649 c143 -313 294 -860 500 -1813 65 -300 96 -451 225
-1090 55 -269 102 -500 105 -512 l5 -23 -914 0 -914 0 -4 111 c-3 102 -5 112
-27 130 -30 24 -56 24 -81 -1 -18 -18 -20 -33 -20 -130 l0 -110 -490 0 c-269
0 -490 2 -490 5 0 3 28 19 62 36 169 85 392 242 563 397 432 389 779 970 1030
1726 75 225 115 364 225 776 87 323 166 580 179 580 5 0 25 -37 46 -82z m4675
-3565 c0 -1 -74 -37 -165 -82 -470 -228 -801 -498 -1104 -900 -278 -371 -474
-793 -672 -1448 -178 -592 -224 -723 -295 -828 -48 -73 -69 -78 -112 -29 -116
134 -262 477 -401 941 -52 175 -76 263 -161 588 -49 191 -175 739 -250 1090
-44 209 -83 390 -85 403 -5 20 -3 22 14 13 29 -16 49 -13 71 9 18 18 20 33 20
130 l0 110 1205 0 1205 0 0 -110 c0 -97 2 -112 20 -130 24 -24 48 -25 78 -4
21 14 22 23 22 128 0 62 2 115 4 117 4 4 606 6 606 2z m-3271 -65 c-1 -61 -1
-62 -10 -23 -5 22 -11 50 -14 63 -4 15 -1 22 10 22 12 0 15 -13 14 -62z"/>
</g>
</svg>
